<svg width="16" height="17" viewBox="0 0 16 17" fill="none" xmlns="http://www.w3.org/2000/svg">
<path d="M14.7794 4.40104C14.7795 4.12569 14.7259 3.85302 14.6219 3.59861C14.5178 3.34421 14.3653 3.11304 14.1729 2.91833C13.9806 2.72361 13.7523 2.56914 13.501 2.46376C13.2497 2.35838 12.9803 2.30414 12.7083 2.30414H2.95256C2.40347 2.30454 1.87701 2.52565 1.48891 2.91886C1.10082 3.31207 0.882852 3.8452 0.882931 4.40104V5.99512H0.865234V13.8407C0.865234 14.4238 1.09403 14.9829 1.50128 15.3952C1.90854 15.8075 2.4609 16.0391 3.03685 16.0391H12.5904C13.1663 16.0389 13.7186 15.8072 14.1258 15.395C14.533 14.9828 14.7619 14.4237 14.7621 13.8407V6.2356H14.7794V4.40104Z" fill="#9A9A9A"/>
<path d="M4.05414 3.06317C3.81549 3.06317 3.58661 2.9672 3.41785 2.79637C3.2491 2.62555 3.1543 2.39385 3.1543 2.15227V0.918901C3.1543 0.677314 3.2491 0.445621 3.41785 0.274794C3.58661 0.103966 3.81549 0.00799561 4.05414 0.00799561C4.29279 0.00799561 4.52167 0.103966 4.69042 0.274794C4.85917 0.445621 4.95398 0.677314 4.95398 0.918901V2.15227C4.95398 2.39385 4.85917 2.62555 4.69042 2.79637C4.52167 2.9672 4.29279 3.06317 4.05414 3.06317Z" fill="#9A9A9A"/>
<path d="M11.6088 3.06317C11.3702 3.06317 11.1413 2.9672 10.9725 2.79637C10.8038 2.62555 10.709 2.39385 10.709 2.15227V0.918901C10.709 0.677314 10.8038 0.445621 10.9725 0.274794C11.1413 0.103966 11.3702 0.00799561 11.6088 0.00799561C11.8475 0.00799561 12.0764 0.103966 12.2451 0.274794C12.4139 0.445621 12.5087 0.677314 12.5087 0.918901V2.15227C12.5087 2.39385 12.4139 2.62555 12.2451 2.79637C12.0764 2.9672 11.8475 3.06317 11.6088 3.06317Z" fill="#9A9A9A"/>
<path d="M15.6983 5.59448H0V6.84583H15.6983V5.59448Z" fill="white"/>
</svg>
