<svg width="9" height="12" viewBox="0 0 9 12" fill="none" xmlns="http://www.w3.org/2000/svg">
<path d="M4.49999 12C3.68802 11.2819 2.9354 10.4946 2.24999 9.64646C1.22143 8.37271 5.65002e-07 6.47574 5.65002e-07 4.6681C-0.000445511 3.74492 0.263255 2.84235 0.75773 2.07462C1.2522 1.30689 1.95523 0.708507 2.77782 0.355202C3.60042 0.00189744 4.50561 -0.0904489 5.37885 0.0898503C6.25208 0.270149 7.0541 0.714989 7.68341 1.36807C8.10239 1.80056 8.43449 2.31491 8.66048 2.88136C8.88647 3.44781 9.00186 4.0551 8.99998 4.6681C8.99998 6.47574 7.77855 8.37271 6.74998 9.64646C6.06457 10.4946 5.31195 11.2819 4.49999 12ZM4.49999 2.66849C3.9885 2.66849 3.49796 2.87916 3.13629 3.25416C2.77461 3.62916 2.57142 4.13777 2.57142 4.6681C2.57142 5.19843 2.77461 5.70704 3.13629 6.08203C3.49796 6.45703 3.9885 6.66771 4.49999 6.66771C5.01148 6.66771 5.50202 6.45703 5.86369 6.08203C6.22537 5.70704 6.42856 5.19843 6.42856 4.6681C6.42856 4.13777 6.22537 3.62916 5.86369 3.25416C5.50202 2.87916 5.01148 2.66849 4.49999 2.66849Z" fill="#6A6A6A"/>
</svg>
