<svg width="29" height="29" viewBox="0 0 29 29" fill="none" xmlns="http://www.w3.org/2000/svg">
<path fill-rule="evenodd" clip-rule="evenodd" d="M0 3.7955C0 1.6993 1.70279 0 3.80328 0H25.1967C27.2972 0 29 1.6993 29 3.7955V25.2045C29 27.3007 27.2972 29 25.1967 29H3.80328C1.70278 29 0 27.3007 0 25.2045V3.7955ZM3.80328 1.66053C2.62175 1.66053 1.66393 2.61639 1.66393 3.7955V25.2045C1.66393 26.3836 2.62175 27.3395 3.80328 27.3395H5.35523L18.6182 13.668C20.096 12.1447 22.5377 12.125 24.04 13.6242L27.3361 16.9135V3.7955C27.3361 2.61639 26.3783 1.66053 25.1967 1.66053H3.80328ZM25.1967 27.3395H7.6712L19.8137 14.823C20.6449 13.9662 22.0184 13.9551 22.8634 14.7984L27.3361 19.2619V25.2045C27.3361 26.3836 26.3782 27.3395 25.1967 27.3395ZM6.71516 9.93354C6.71516 8.18125 8.13859 6.76074 9.89447 6.76074C11.6503 6.76074 13.0738 8.18125 13.0738 9.93354C13.0738 11.6858 11.6503 13.1063 9.89447 13.1063C8.13859 13.1063 6.71516 11.6858 6.71516 9.93354ZM9.89447 5.1002C7.21962 5.1002 5.05123 7.26416 5.05123 9.93354C5.05123 12.6029 7.21962 14.7669 9.89447 14.7669C12.5693 14.7669 14.7377 12.6029 14.7377 9.93354C14.7377 7.26416 12.5693 5.1002 9.89447 5.1002Z" fill="#DBDBDB"/>
</svg>
