<svg width="12" height="12" viewBox="0 0 12 12" fill="none" xmlns="http://www.w3.org/2000/svg">
<path fill-rule="evenodd" clip-rule="evenodd" d="M6.41035 0.0156727C8.53127 0.174821 10.4063 1.53517 11.7721 3.579L12 3.92005L11.3378 4.38959L11.1099 4.04853C9.75564 2.02207 7.94582 0.831518 6 0.82811C4.05418 0.831518 2.24436 2.02207 0.890139 4.04853L0.66222 4.38959L0 3.92005L0.227919 3.579C1.59375 1.53517 3.46873 0.174821 5.58965 0.0156727V5.24521e-06H5.99162C5.99441 5.24521e-06 5.99721 7.15256e-06 6 1.14441e-05C6.00279 7.15256e-06 6.00559 5.24521e-06 6.00838 5.24521e-06H6.41035V0.0156727Z" fill="#9A9A9A"/>
<path fill-rule="evenodd" clip-rule="evenodd" d="M6.41035 11.9842C8.53127 11.8251 10.4063 10.4647 11.7721 8.42088L12 8.07982L11.3378 7.61029L11.1099 7.95135C9.75564 9.97781 7.94582 11.1684 6 11.1718C4.05418 11.1684 2.24436 9.97781 0.890139 7.95135L0.66222 7.61029L0 8.07982L0.227919 8.42088C1.59375 10.4647 3.46873 11.8251 5.58965 11.9842V11.9999H5.99162C5.99441 11.9999 5.99721 11.9999 6 11.9999C6.00279 11.9999 6.00559 11.9999 6.00838 11.9999H6.41035V11.9842Z" fill="#9A9A9A"/>
<path fill-rule="evenodd" clip-rule="evenodd" d="M6.04812 8.5804C7.42453 8.5804 8.54034 7.43107 8.54034 6.0133C8.54034 4.59553 7.42453 3.4462 6.04812 3.4462C4.6717 3.4462 3.5559 4.59553 3.5559 6.0133C3.5559 7.43107 4.6717 8.5804 6.04812 8.5804ZM6.04812 9.4085C7.86854 9.4085 9.34428 7.88842 9.34428 6.0133C9.34428 4.13818 7.86854 2.6181 6.04812 2.6181C4.2277 2.6181 2.75195 4.13818 2.75195 6.0133C2.75195 7.88842 4.2277 9.4085 6.04812 9.4085Z" fill="#9A9A9A"/>
</svg>
