<svg width="15" height="15" viewBox="0 0 15 15" fill="none" xmlns="http://www.w3.org/2000/svg">
<path d="M2.19643 2.13857C2.31993 1.53476 2.64867 0.992083 3.12702 0.602377C3.60536 0.212672 4.20394 -0.000125721 4.82143 5.57247e-08H11.7857C12.6382 5.57247e-08 13.4558 0.337969 14.0586 0.939557C14.6614 1.54114 15 2.35707 15 3.20785V8.01962C15.0001 8.63587 14.7869 9.23325 14.3964 9.71064C14.0059 10.188 13.4622 10.5161 12.8571 10.6394V10.6928C12.8571 11.26 12.6314 11.804 12.2295 12.205C11.8277 12.6061 11.2826 12.8314 10.7143 12.8314H6.6L3.83679 14.801C3.67657 14.9151 3.48795 14.983 3.29162 14.9972C3.09529 15.0114 2.89884 14.9713 2.72383 14.8814C2.54883 14.7915 2.40202 14.6552 2.29953 14.4874C2.19705 14.3197 2.14284 14.1271 2.14286 13.9306V12.8314C1.57454 12.8314 1.02949 12.6061 0.627628 12.205C0.225765 11.804 0 11.26 0 10.6928V4.27713C0 3.70995 0.225765 3.16599 0.627628 2.76494C1.02949 2.36388 1.57454 2.13857 2.14286 2.13857H2.19643ZM3.30536 2.13857H10.7143C11.2826 2.13857 11.8277 2.36388 12.2295 2.76494C12.6314 3.16599 12.8571 3.70995 12.8571 4.27713V9.53265C13.1706 9.42204 13.442 9.21713 13.6339 8.94614C13.8258 8.67516 13.9287 8.35145 13.9286 8.01962V3.20785C13.9286 2.64066 13.7028 2.09671 13.3009 1.69565C12.8991 1.29459 12.354 1.06928 11.7857 1.06928H4.82143C4.48894 1.06911 4.16457 1.17186 3.89305 1.36337C3.62152 1.55487 3.41619 1.82572 3.30536 2.13857ZM11.7857 10.6928V4.27713C11.7857 3.99354 11.6728 3.72156 11.4719 3.52103C11.271 3.3205 10.9984 3.20785 10.7143 3.20785H2.14286C1.8587 3.20785 1.58617 3.3205 1.38524 3.52103C1.18431 3.72156 1.07143 3.99354 1.07143 4.27713V10.6928C1.07143 10.9764 1.18431 11.2484 1.38524 11.4489C1.58617 11.6495 1.8587 11.7621 2.14286 11.7621H3.21429V13.9306L6.25714 11.7621H10.7143C10.9984 11.7621 11.271 11.6495 11.4719 11.4489C11.6728 11.2484 11.7857 10.9764 11.7857 10.6928Z" fill="#6A6A6A"/>
</svg>
