<svg xmlns="http://www.w3.org/2000/svg" xmlns:xlink="http://www.w3.org/1999/xlink" width="50" height="50" viewBox="0 0 50 50"><defs><clipPath id="a"><rect width="50" height="50" rx="25" transform="translate(522 1116)" fill="#f4a457"/></clipPath></defs><g transform="translate(-522 -1089)"><rect width="50" height="50" rx="25" transform="translate(522 1089)" fill="#f3aa64"/><g transform="translate(0 -27)" clip-path="url(#a)"><g transform="translate(533 1130.914)"><g transform="translate(3.004 25.048)"><g transform="translate(0 0)"><path d="M694.484-215.109a14.16,14.16,0,0,0-2.625,4.482c-.547,1.709-.862,4.658,1.573,4.974a2.256,2.256,0,0,0,2.594-1.918" transform="translate(-691.114 215.468)" fill="#f4a457"/><path d="M692.691-206.408a3.469,3.469,0,0,1-.448-.03,2.367,2.367,0,0,1-1.789-1.078c-.911-1.435-.292-3.7-.08-4.361a14.37,14.37,0,0,1,2.7-4.613.359.359,0,0,1,.507-.026.359.359,0,0,1,.027.507,13.893,13.893,0,0,0-2.55,4.352c-.387,1.206-.589,2.827,0,3.757a1.66,1.66,0,0,0,1.275.75,1.87,1.87,0,0,0,2.193-1.617.359.359,0,0,1,.41-.3.358.358,0,0,1,.3.408A2.571,2.571,0,0,1,692.691-206.408Z" transform="translate(-689.971 216.609)" fill="#080304"/></g><g transform="translate(17.56)"><path d="M766.37-215.109a14.142,14.142,0,0,1,2.625,4.482c.548,1.709.862,4.658-1.572,4.974a2.256,2.256,0,0,1-2.594-1.918" transform="translate(-764.47 215.468)" fill="#f4a457"/><path d="M765.88-206.408a2.57,2.57,0,0,1-2.547-2.251.36.36,0,0,1,.3-.409.36.36,0,0,1,.408.3,1.868,1.868,0,0,0,2.193,1.616,1.659,1.659,0,0,0,1.275-.751c.591-.932.389-2.552,0-3.757a13.878,13.878,0,0,0-2.55-4.352.359.359,0,0,1,.026-.507.359.359,0,0,1,.507.026,14.363,14.363,0,0,1,2.7,4.614c.212.66.832,2.925-.079,4.361a2.367,2.367,0,0,1-1.789,1.078A3.467,3.467,0,0,1,765.88-206.408Z" transform="translate(-763.328 216.609)" fill="#080304"/></g></g><g transform="translate(7.226 34.754)"><g transform="translate(0.359 0.359)"><path d="M714.629-174.558s.061,1.11,0,2.355-.561,2.393-2.745,2.393-2.685-1.148-2.746-2.393,0-2.355,0-2.355" transform="translate(-709.111 174.558)" fill="#f4a457"/></g><g transform="translate(0.524 3.372)"><path d="M709.84-161.971h5.224s.307,1.8-2.745,1.8S709.84-161.971,709.84-161.971Z" transform="translate(-709.798 161.971)" fill="#fff"/></g><path d="M710.743-170.593c-2,0-3.014-.894-3.1-2.734-.062-1.249,0-2.346,0-2.392a.359.359,0,0,1,.378-.339.359.359,0,0,1,.339.378c0,.011-.059,1.107,0,2.318.05,1.014.373,2.051,2.387,2.051s2.336-1.037,2.387-2.051c.06-1.21,0-2.306,0-2.317a.359.359,0,0,1,.339-.378.358.358,0,0,1,.378.339c0,.046.062,1.143,0,2.392C713.755-171.488,712.74-170.593,710.743-170.593Z" transform="translate(-707.611 176.059)" fill="#080304"/><g transform="translate(8.121)"><g transform="translate(0.359 0.359)"><path d="M748.555-174.558s.061,1.11,0,2.355-.561,2.393-2.745,2.393-2.684-1.148-2.746-2.393,0-2.355,0-2.355" transform="translate(-743.037 174.558)" fill="#f4a457"/></g><g transform="translate(0.523 3.372)"><path d="M743.765-161.971h5.224s.307,1.8-2.744,1.8S743.765-161.971,743.765-161.971Z" transform="translate(-743.722 161.971)" fill="#fff"/></g><path d="M744.669-170.593c-2,0-3.013-.894-3.1-2.734-.062-1.25,0-2.346,0-2.392a.36.36,0,0,1,.378-.339.359.359,0,0,1,.339.378c0,.011-.059,1.107,0,2.318.05,1.014.373,2.051,2.387,2.051s2.337-1.037,2.387-2.051c.06-1.21,0-2.307,0-2.318a.359.359,0,0,1,.339-.378.358.358,0,0,1,.378.339c0,.046.062,1.143,0,2.392C747.682-171.488,746.667-170.593,744.669-170.593Z" transform="translate(-741.536 176.059)" fill="#080304"/></g></g><g transform="translate(6.117 26.462)"><path d="M719.91-209.205a20.5,20.5,0,0,1,.453,4.867c0,3.2-2.647,4.855-7.941,4.855s-7.943-1.651-7.943-4.855a20.486,20.486,0,0,1,.453-4.867" transform="translate(-704.12 209.564)" fill="#f4a457"/><path d="M711.281-200.263c-5.509,0-8.3-1.755-8.3-5.214a20.678,20.678,0,0,1,.466-4.962.359.359,0,0,1,.44-.252.359.359,0,0,1,.253.44,20.492,20.492,0,0,0-.441,4.773c0,2.984,2.551,4.5,7.584,4.5s7.582-1.513,7.582-4.5a20.48,20.48,0,0,0-.441-4.773.359.359,0,0,1,.253-.44.358.358,0,0,1,.44.252,20.68,20.68,0,0,1,.466,4.962C719.581-202.018,716.789-200.263,711.281-200.263Z" transform="translate(-702.979 210.704)" fill="#080304"/></g><g transform="translate(9.772 24.847)"><path d="M722.9-208.953c3.941,0,4.735-1.42,4.638-3.51-.139-2.98-2.118-4.986-4.638-4.986s-4.5,2.006-4.639,4.986C718.159-210.373,718.952-208.953,722.9-208.953Z" transform="translate(-718.248 217.449)" fill="#fff"/></g><g transform="translate(0 -0.001)"><g transform="translate(9.129)"><g transform="translate(4.929)"><path d="M737.655-318.381a1.805,1.805,0,0,1,.723-1.372" transform="translate(-737.296 320.112)" fill="#df4342"/><path d="M736.514-319.164h0a.358.358,0,0,1-.354-.36,2.166,2.166,0,0,1,.878-1.666.359.359,0,0,1,.5.092.359.359,0,0,1-.092.5,1.457,1.457,0,0,0-.567,1.081A.36.36,0,0,1,736.514-319.164Z" transform="translate(-736.155 321.254)" fill="#080304"/></g><g transform="translate(0 1.152)"><path d="M721.993-311.068c1.278,0,4.844,1.062,4.928-.936s-2.883-2.935-4.928-2.935-5.011.937-4.927,2.935S720.715-311.068,721.993-311.068Z" transform="translate(-716.705 315.298)" fill="#df4342"/><path d="M717.847-311.568a2.759,2.759,0,0,1-1.777-.474,1.434,1.434,0,0,1-.5-1.088,2.289,2.289,0,0,1,.689-1.725,6.834,6.834,0,0,1,4.6-1.583,6.836,6.836,0,0,1,4.6,1.583,2.289,2.289,0,0,1,.688,1.725,1.434,1.434,0,0,1-.5,1.088c-.817.686-2.405.474-3.681.3a9.977,9.977,0,0,0-1.1-.112,9.976,9.976,0,0,0-1.1.112A14.743,14.743,0,0,1,717.847-311.568Zm3-4.153a6.2,6.2,0,0,0-4.079,1.362,1.6,1.6,0,0,0-.49,1.2.729.729,0,0,0,.249.569c.575.482,2.048.286,3.124.142a10.084,10.084,0,0,1,1.2-.118,10.09,10.09,0,0,1,1.2.118c1.076.144,2.55.34,3.125-.142a.728.728,0,0,0,.248-.568,1.6,1.6,0,0,0-.489-1.2A6.2,6.2,0,0,0,720.851-315.721Z" transform="translate(-715.563 316.439)" fill="#080304"/></g></g><g transform="translate(5.903 1.675)"><path d="M708.737-310.546s-.536-2.732-3.1-2.121c-3.124.745-1.751,4.111-1.751,4.111" transform="translate(-703.227 313.115)" fill="#f4a457"/><path d="M702.745-309.339a.359.359,0,0,1-.332-.223,4.246,4.246,0,0,1-.009-3.16,2.861,2.861,0,0,1,2.01-1.436,2.711,2.711,0,0,1,2.17.292,3.536,3.536,0,0,1,1.366,2.109.359.359,0,0,1-.283.421.358.358,0,0,1-.421-.282,2.844,2.844,0,0,0-1.053-1.646,2.025,2.025,0,0,0-1.611-.195,2.18,2.18,0,0,0-1.536,1.063,3.577,3.577,0,0,0,.034,2.564.359.359,0,0,1-.2.467A.359.359,0,0,1,702.745-309.339Z" transform="translate(-702.085 314.258)" fill="#080304"/></g><g transform="translate(17.064 1.675)"><path d="M750.209-310.546s.536-2.732,3.1-2.121c3.125.745,1.752,4.111,1.752,4.111" transform="translate(-749.85 313.115)" fill="#f4a457"/><path d="M753.919-309.338a.355.355,0,0,1-.135-.027.359.359,0,0,1-.2-.468,3.574,3.574,0,0,0,.034-2.563,2.181,2.181,0,0,0-1.537-1.063,2.025,2.025,0,0,0-1.61.195,2.843,2.843,0,0,0-1.053,1.647.36.36,0,0,1-.422.282.358.358,0,0,1-.282-.421,3.536,3.536,0,0,1,1.365-2.109,2.711,2.711,0,0,1,2.169-.291,2.862,2.862,0,0,1,2.011,1.436,4.245,4.245,0,0,1-.01,3.16A.359.359,0,0,1,753.919-309.338Z" transform="translate(-748.709 314.257)" fill="#080304"/></g><g transform="translate(0 2.697)"><g transform="translate(0 1.169)"><g transform="translate(0.333 0.383)"><path d="M692.874-280.034c5.613,0,14.062-1.4,14.06-10.016,0-9.185-5.783-13.455-14.06-13.455s-14.056,4.269-14.059,13.455C678.813-281.432,687.261-280.034,692.874-280.034Z" transform="translate(-678.815 303.504)" fill="#f4a457"/></g><g transform="translate(5.745 9.289)"><g transform="translate(0 0.6)" opacity="0.4"><g opacity="0.6"><path d="M705.923-261.549a2.249,2.249,0,0,1-2.249,2.249,2.248,2.248,0,0,1-2.247-2.249,2.248,2.248,0,0,1,2.247-2.248A2.25,2.25,0,0,1,705.923-261.549Z" transform="translate(-701.426 263.797)" fill="#ee7f2f"/></g><g transform="translate(12.849)" opacity="0.6"><path d="M759.6-261.549a2.249,2.249,0,0,1-2.249,2.249,2.249,2.249,0,0,1-2.248-2.249,2.249,2.249,0,0,1,2.248-2.248A2.249,2.249,0,0,1,759.6-261.549Z" transform="translate(-755.104 263.797)" fill="#ee7f2f"/></g></g><g transform="translate(4.848)"><path d="M723.68-265.112a1.106,1.106,0,0,1-1,1.189,1.107,1.107,0,0,1-1-1.189,1.108,1.108,0,0,1,1-1.19A1.107,1.107,0,0,1,723.68-265.112Z" transform="translate(-721.68 266.302)" fill="#080304"/></g><g transform="translate(10.496)"><path d="M745.276-265.112a1.107,1.107,0,0,0,1,1.189,1.107,1.107,0,0,0,1-1.189,1.108,1.108,0,0,0-1-1.19A1.107,1.107,0,0,0,745.276-265.112Z" transform="translate(-745.276 266.302)" fill="#080304"/></g><g transform="translate(6.268 2.728)"><g transform="translate(1.139 0.891)"><path d="M736.56-251.107s.024.48.034.689c.016.313.088.776-.928.828l-.377.018-.376.02c-1.016.051-.992-.417-1.008-.731-.011-.209-.034-.687-.034-.687" transform="translate(-733.511 251.125)" fill="#fff"/><path d="M733.631-249.246a1.341,1.341,0,0,1-.932-.277,1.012,1.012,0,0,1-.29-.759l-.036-.727.717-.036.037.73c.006.132.013.221.056.26s.154.109.574.088l.754-.038c.419-.022.535-.116.561-.145s.036-.132.029-.263l0-.044c-.01-.21-.034-.689-.034-.69l.717-.036s.024.481.034.691l0,.038a1.009,1.009,0,0,1-.211.783,1.466,1.466,0,0,1-1.06.383l-.753.038C733.737-249.248,733.683-249.246,733.631-249.246Z" transform="translate(-732.372 251.183)" fill="#080304"/></g><g transform="translate(0 0.264)"><path d="M730.089-252.64a12.76,12.76,0,0,1-2.185-.195.359.359,0,0,1-.285-.42.358.358,0,0,1,.42-.285c.028.006,2.821.528,4.379-.226a.359.359,0,0,1,.48.167.359.359,0,0,1-.167.48A6.29,6.29,0,0,1,730.089-252.64Z" transform="translate(-727.612 253.802)" fill="#080304"/></g><g transform="translate(4.715)"><path d="M747.867-253.886a.358.358,0,0,1-.171-.044.907.907,0,0,1-.369-.506.359.359,0,0,1,.231-.452.359.359,0,0,1,.452.229.539.539,0,0,0,.055.113.359.359,0,0,1,.118.471A.359.359,0,0,1,747.867-253.886Z" transform="translate(-747.31 254.905)" fill="#080304"/></g></g><g transform="translate(8.098 0.73)"><path d="M736.405-262.791a.527.527,0,0,1-.575.459.527.527,0,0,1-.574-.459.527.527,0,0,1,.574-.46A.527.527,0,0,1,736.405-262.791Z" transform="translate(-735.256 263.251)" fill="#080304"/></g></g><g transform="translate(10.958)"><g transform="translate(0.359 0.359)"><path d="M727.8-297.035a.359.359,0,0,1-.349-.275,11.817,11.817,0,0,0-2.64-5.484.359.359,0,0,1-.1-.363.359.359,0,0,1,.281-.25,17.339,17.339,0,0,1,2.8-.2,17.361,17.361,0,0,1,2.806.2.359.359,0,0,1,.28.25.358.358,0,0,1-.1.363,11.924,11.924,0,0,0-2.642,5.484.359.359,0,0,1-.349.275Z" transform="translate(-724.701 303.606)" fill="#7b5126"/></g><path d="M726.661-304.388a17.156,17.156,0,0,1,2.743.193,12.079,12.079,0,0,0-2.743,5.66,12.071,12.071,0,0,0-2.742-5.66,17.134,17.134,0,0,1,2.742-.193m0-.718a17.735,17.735,0,0,0-2.869.2.718.718,0,0,0-.561.5.718.718,0,0,0,.192.727,11.633,11.633,0,0,1,2.539,5.309.718.718,0,0,0,.7.549.718.718,0,0,0,.7-.549,11.637,11.637,0,0,1,2.543-5.311.721.721,0,0,0,.187-.726.717.717,0,0,0-.559-.5,17.745,17.745,0,0,0-2.869-.2Z" transform="translate(-723.202 305.106)" fill="#7b5126"/></g><g transform="translate(0 0.024)"><path d="M691.842-280.815a20.672,20.672,0,0,1-9.3-1.815,8.921,8.921,0,0,1-5.12-8.559c0-8.779,5.257-13.814,14.418-13.814s14.417,5.035,14.419,13.814a8.921,8.921,0,0,1-5.121,8.559A20.677,20.677,0,0,1,691.842-280.815Zm0-23.47c-8.7,0-13.7,4.773-13.7,13.1a8.249,8.249,0,0,0,4.727,7.919,19.985,19.985,0,0,0,8.973,1.737,19.988,19.988,0,0,0,8.973-1.737,8.249,8.249,0,0,0,4.727-7.919C705.541-299.513,700.547-304.286,691.842-304.286Z" transform="translate(-677.424 305.004)" fill="#080304"/></g></g><g transform="translate(11.317)"><path d="M727.21-304.979a1.394,1.394,0,0,1-.99-1.282c-.18-1.136,1.035-2.463,2.778-1.147,0,0-.067-.889.652-1.058s1.406.326,1.833,1.743" transform="translate(-725.843 308.854)" fill="#7b5126"/><path d="M726.07-305.753a.358.358,0,0,1-.064-.006,1.74,1.74,0,0,1-1.281-1.579,1.875,1.875,0,0,1,.853-1.867,1.987,1.987,0,0,1,2,.061,1.151,1.151,0,0,1,.847-.8c.466-.109,1.619-.134,2.259,1.989a.359.359,0,0,1-.24.447.359.359,0,0,1-.447-.24c-.192-.637-.631-1.679-1.407-1.5-.415.1-.377.675-.376.681a.36.36,0,0,1-.186.342.359.359,0,0,1-.388-.029,1.519,1.519,0,0,0-1.694-.334,1.141,1.141,0,0,0-.514,1.139c.135.852.682.981.705.986a.362.362,0,0,1,.279.422A.357.357,0,0,1,726.07-305.753Z" transform="translate(-724.703 309.988)" fill="#080304"/></g></g></g></g></g></g></svg>