<svg width="14" height="14" viewBox="0 0 14 14" fill="none" xmlns="http://www.w3.org/2000/svg">
<path fill-rule="evenodd" clip-rule="evenodd" d="M7 12.3586C9.97521 12.3586 12.3871 9.95228 12.3871 6.98391C12.3871 4.01554 9.97521 1.6092 7 1.6092C4.02479 1.6092 1.6129 4.01554 1.6129 6.98391C1.6129 9.95228 4.02479 12.3586 7 12.3586ZM7 13.9678C10.866 13.9678 14 10.841 14 6.98391C14 3.1268 10.866 0 7 0C3.13401 0 0 3.1268 0 6.98391C0 10.841 3.13401 13.9678 7 13.9678Z" fill="#6A6A6A"/>
<path fill-rule="evenodd" clip-rule="evenodd" d="M8.10705 8.76441C8.42199 8.45019 8.93261 8.45019 9.24755 8.76441L13.1185 12.6265C13.4335 12.9407 13.4335 13.4501 13.1185 13.7644C12.8036 14.0786 12.293 14.0786 11.978 13.7644L8.10705 9.90228C7.79211 9.58807 7.79211 9.07862 8.10705 8.76441Z" fill="#6A6A6A"/>
</svg>
